<svg width="206" height="37" viewBox="0 0 206 37" fill="none" xmlns="http://www.w3.org/2000/svg">
<path fill-rule="evenodd" clip-rule="evenodd" d="M19.597 35.9541L19.5767 35.9579L19.4453 36.0237L19.4083 36.0312L19.3824 36.0237L19.2511 35.9579C19.2326 35.9503 19.2159 35.956 19.2067 35.9673L19.1993 35.9861L19.1678 36.7912L19.1771 36.8288L19.1956 36.8533L19.388 36.9925L19.4157 37L19.4379 36.9925L19.6303 36.8533L19.6525 36.8232L19.6599 36.7912L19.6285 35.988C19.6248 35.9691 19.6118 35.956 19.597 35.9541ZM20.0873 35.7415L20.0632 35.7453L19.721 35.9202L19.7025 35.9391L19.6969 35.9597L19.7302 36.7686L19.7395 36.7912L19.7543 36.8044L20.1261 36.9793C20.1483 36.9868 20.1687 36.9793 20.1798 36.9643L20.1872 36.9379L20.1243 35.7829C20.1187 35.7603 20.1058 35.7453 20.0873 35.7415ZM18.7645 35.7453C18.7561 35.7414 18.7467 35.7404 18.7377 35.7425C18.7287 35.7445 18.7206 35.7494 18.7146 35.7566L18.7035 35.7829L18.6406 36.9379C18.6406 36.9605 18.6535 36.9756 18.672 36.9831L18.6998 36.9793L19.0716 36.8044L19.0901 36.7893L19.0975 36.7686L19.129 35.9597L19.1234 35.9372L19.1049 35.9184L18.7645 35.7453Z" fill="white"/>
<path fill-rule="evenodd" clip-rule="evenodd" d="M17.575 2.04887e-08C19.3936 0.000142492 21.1622 0.605546 22.6107 1.72375C24.0591 2.84196 25.1078 4.4115 25.5966 6.19267L25.6928 6.5783L29.1523 5.69982C29.4052 5.63582 29.6685 5.62686 29.925 5.67352C30.1815 5.72019 30.4254 5.82143 30.6407 5.97061C30.8561 6.11979 31.038 6.31354 31.1746 6.53918C31.3112 6.76483 31.3994 7.01726 31.4333 7.27996L31.45 7.52451V10.9294C32.493 11.9462 33.3477 13.1453 33.9734 14.4696L34.2287 15.049H35.15C35.6031 15.0491 36.0405 15.2182 36.3791 15.5244C36.7177 15.8306 36.934 16.2525 36.9871 16.7101L37 16.9301V22.5735C37 22.8831 36.9249 23.188 36.7813 23.461C36.6377 23.734 36.43 23.9668 36.1768 24.1386L35.977 24.2553L33.8161 25.3557C32.9316 27.0959 31.6502 28.5956 30.0792 29.7293L29.6 30.0567V31.9792C29.5999 32.4399 29.4336 32.8846 29.1325 33.2289C28.8314 33.5732 28.4165 33.7932 27.9665 33.8471L27.75 33.8603H22.2C21.7469 33.8602 21.3095 33.6911 20.9709 33.3849C20.6323 33.0787 20.416 32.6568 20.363 32.1993L20.35 31.9792H18.5C18.4999 32.4399 18.3336 32.8846 18.0325 33.2289C17.7314 33.5732 17.3165 33.7932 16.8664 33.8471L16.65 33.8603H11.1C10.6469 33.8602 10.2095 33.6911 9.87091 33.3849C9.5323 33.0787 9.31597 32.6568 9.26295 32.1993L9.25 31.9792V30.0567C7.91353 29.1878 6.75907 28.059 5.85297 26.7351C4.94688 25.4112 4.30699 23.9183 3.9701 22.3421C2.87921 22.012 1.91441 21.349 1.2063 20.4429C0.498189 19.5369 0.0809649 18.4314 0.0111001 17.2763L0 16.9301V15.9896C0.000523009 15.5101 0.181076 15.049 0.504769 14.7003C0.828463 14.3517 1.27086 14.1419 1.74158 14.1138C2.2123 14.0857 2.6758 14.2414 3.03739 14.5491C3.39898 14.8569 3.63136 15.2934 3.68705 15.7695L3.7 15.9896V16.9301C3.7 17.2086 3.7592 17.4738 3.8665 17.7108C4.14887 16.0173 4.77879 14.4031 5.71526 12.9735C6.65172 11.5439 7.87375 10.3308 9.3018 9.41316C9.17054 8.22896 9.28665 7.02993 9.64254 5.8945C9.99844 4.75908 10.5861 3.71286 11.367 2.82429C12.148 1.93573 13.1047 1.22484 14.1745 0.738146C15.2442 0.251452 16.403 -8.28875e-05 17.575 2.04887e-08ZM25.9 15.049C25.4093 15.049 24.9388 15.2472 24.5919 15.6C24.2449 15.9528 24.05 16.4312 24.05 16.9301C24.05 17.4291 24.2449 17.9075 24.5919 18.2603C24.9388 18.6131 25.4093 18.8113 25.9 18.8113C26.3907 18.8113 26.8612 18.6131 27.2081 18.2603C27.5551 17.9075 27.75 17.4291 27.75 16.9301C27.75 16.4312 27.5551 15.9528 27.2081 15.6C26.8612 15.2472 26.3907 15.049 25.9 15.049ZM17.575 3.76225C16.4544 3.76225 15.372 4.17591 14.5288 4.92637C13.6856 5.67683 13.1391 6.71304 12.9907 7.84242C13.8872 7.63072 14.8046 7.52406 15.725 7.52451H21.9725L22.1019 7.49253C21.8826 6.43714 21.313 5.49052 20.4888 4.81136C19.6646 4.13221 18.6359 3.7618 17.575 3.76225Z" fill="white"/>
<path d="M47.8 4.06H66.2V9.66H53.6V16.34H64.52V21.94H53.6V33.5H47.8V4.06ZM70.8644 16.02H76.4644V33.5H70.8644V16.02ZM70.7444 9.82C70.7444 8.99333 71.0644 8.31333 71.7044 7.78C72.371 7.24667 73.0777 6.98 73.8244 6.98C74.571 6.98 75.251 7.24667 75.8644 7.78C76.5044 8.31333 76.8244 8.99333 76.8244 9.82C76.8244 10.6467 76.5044 11.3267 75.8644 11.86C75.251 12.3667 74.571 12.62 73.8244 12.62C73.0777 12.62 72.371 12.3667 71.7044 11.86C71.0644 11.3267 70.7444 10.6467 70.7444 9.82ZM87.3116 16.02L87.7516 19.14L87.6716 18.86C88.2849 17.7667 89.1516 16.8867 90.2716 16.22C91.3916 15.5267 92.7649 15.18 94.3916 15.18C96.0449 15.18 97.4182 15.6733 98.5116 16.66C99.6316 17.62 100.205 18.8733 100.232 20.42V33.5H94.6316V22.5C94.6049 21.7267 94.3916 21.1133 93.9916 20.66C93.6182 20.18 92.9782 19.94 92.0716 19.94C91.2182 19.94 90.4716 20.22 89.8316 20.78C89.1916 21.34 88.6982 22.1 88.3516 23.06C88.0049 24.02 87.8316 25.1267 87.8316 26.38V33.5H82.2316V16.02H87.3116ZM104.902 4.06H124.742V9.66H117.582V33.5H111.782V9.66H104.902V4.06ZM132.076 16.02L132.596 20.82L132.476 20.1C132.983 19.06 133.676 18.18 134.556 17.46C135.436 16.7133 136.303 16.14 137.156 15.74C138.036 15.34 138.703 15.14 139.156 15.14L138.876 20.74C137.57 20.58 136.45 20.7933 135.516 21.38C134.583 21.9667 133.863 22.74 133.356 23.7C132.85 24.66 132.596 25.6467 132.596 26.66V33.5H127.036V16.02H132.076ZM150.217 33.98C148.59 33.98 147.11 33.66 145.777 33.02C144.47 32.3533 143.43 31.34 142.657 29.98C141.883 28.62 141.497 26.8867 141.497 24.78C141.497 22.8067 141.897 21.1 142.697 19.66C143.497 18.22 144.55 17.1133 145.857 16.34C147.163 15.54 148.55 15.14 150.017 15.14C151.75 15.14 153.057 15.4333 153.937 16.02C154.843 16.58 155.59 17.2067 156.177 17.9L155.937 18.58L156.457 16.02H161.657V33.5H156.057V29.7L156.497 30.9C156.443 30.9 156.283 31.06 156.017 31.38C155.75 31.6733 155.35 32.0333 154.817 32.46C154.31 32.86 153.67 33.2067 152.897 33.5C152.15 33.82 151.257 33.98 150.217 33.98ZM151.817 29.42C152.483 29.42 153.083 29.3267 153.617 29.14C154.15 28.9267 154.617 28.6333 155.017 28.26C155.417 27.86 155.763 27.3667 156.057 26.78V22.5C155.843 21.9133 155.523 21.42 155.097 21.02C154.67 20.5933 154.163 20.2733 153.577 20.06C152.99 19.82 152.337 19.7 151.617 19.7C150.817 19.7 150.07 19.9133 149.377 20.34C148.71 20.74 148.177 21.3 147.777 22.02C147.377 22.74 147.177 23.5667 147.177 24.5C147.177 25.4333 147.39 26.2733 147.817 27.02C148.243 27.7667 148.803 28.3533 149.497 28.78C150.217 29.2067 150.99 29.42 151.817 29.42ZM182.267 31.94C181.494 32.5533 180.52 33.0467 179.347 33.42C178.2 33.7933 177.067 33.98 175.947 33.98C173.947 33.98 172.2 33.62 170.707 32.9C169.24 32.1533 168.094 31.1 167.267 29.74C166.467 28.3533 166.067 26.6867 166.067 24.74C166.067 22.7933 166.507 21.14 167.387 19.78C168.267 18.3933 169.414 17.34 170.827 16.62C172.267 15.9 173.774 15.54 175.347 15.54C176.92 15.54 178.28 15.7533 179.427 16.18C180.6 16.6067 181.6 17.1667 182.427 17.86L179.707 21.46C179.334 21.1667 178.814 20.8733 178.147 20.58C177.507 20.26 176.747 20.1 175.867 20.1C175.094 20.1 174.387 20.3 173.747 20.7C173.107 21.1 172.6 21.6467 172.227 22.34C171.854 23.0333 171.667 23.8333 171.667 24.74C171.667 25.5933 171.867 26.38 172.267 27.1C172.667 27.82 173.214 28.3933 173.907 28.82C174.627 29.22 175.467 29.42 176.427 29.42C177.04 29.42 177.6 29.34 178.107 29.18C178.64 28.9933 179.094 28.74 179.467 28.42L182.267 31.94ZM186.568 33.5V1.94H192.168V33.5H186.568ZM196.608 21.62L204.528 33.5H198.008L192.928 24.82L196.608 21.62ZM190.488 28.66L189.928 23.34L200.488 15.58L203.887 18.58L190.488 28.66Z" fill="white"/>
</svg>
